<?xml version="1.0" encoding="utf-8"?>
<!-- Generator: Adobe Illustrator 25.3.1, SVG Export Plug-In . SVG Version: 6.00 Build 0)  -->
<svg version="1.1" id="Layer_1" xmlns="http://www.w3.org/2000/svg" xmlns:xlink="http://www.w3.org/1999/xlink" x="0px" y="0px"
	 viewBox="0 0 500 500" style="enable-background:new 0 0 500 500;" xml:space="preserve">
<style type="text/css">
	.st0{enable-background:new    ;}
	.st1{fill:#FFFFFF;}
</style>
<g class="st0">
	<path class="st1" d="M218.73,375.75c-11.73,4.26-30.17,6.97-53.63,6.97c-73.73,0-126.25-41.01-126.25-129.63
		c0-102.92,73.73-135.81,132.95-135.81c22.91,0,39.1,3.1,46.93,6.58L209.24,149c-8.94-2.71-18.44-5.41-37.98-5.41
		c-40.22,0-87.15,27.09-87.15,106.79s42.45,106.02,88.26,106.02c16.19,0,30.72-2.71,39.66-5.8L218.73,375.75z"/>
	<path class="st1" d="M329.32,380.4L243.29,119.6h45.8l36.87,122.27c8.94,29.4,20.11,66.95,26.81,100.22h1.68
		c5.58-33.66,16.19-70.03,25.14-100.99l35.75-121.5h45.8l-87.7,260.79H329.32z"/>
</g>
</svg>
