<?xml version="1.0" encoding="utf-8"?>
<!-- Generator: Adobe Illustrator 25.3.1, SVG Export Plug-In . SVG Version: 6.00 Build 0)  -->
<svg version="1.1" id="Layer_1" xmlns="http://www.w3.org/2000/svg" xmlns:xlink="http://www.w3.org/1999/xlink" x="0px" y="0px"
	 viewBox="0 0 500 500" style="enable-background:new 0 0 500 500;" xml:space="preserve">
<style type="text/css">
	.st0{fill:#E2E2E2;}
</style>
<g>
	<g>
		<path class="st0" d="M476.15,185.96c0,59.97,0,119.95,0,179.93c-0.27,0.43-0.65,0.85-0.78,1.31c-4.98,18.17-20.85,29.1-42.57,29.1
			c-121.87,0.02-243.76,0.02-365.64,0c-25.34-0.01-43.2-15.59-43.2-37.53c-0.01-56.17,0-112.33,0-168.48c0-1.35,0-2.68,0-4.6
			c1.67,0.89,2.78,1.45,3.83,2.06c60.68,34.93,121.35,69.87,182.05,104.78c26.23,15.1,53.95,15.21,80.06,0.21
			c60.61-34.81,121.16-69.7,181.74-104.55C473.09,187.34,474.64,186.69,476.15,185.96z"/>
		<path class="st0" d="M476.15,145.55c-0.26,0.3-0.66,0.57-0.74,0.89c-2.37,10.36-9.43,17.71-19.44,23.44
			c-56.56,32.45-113.05,65.02-169.56,97.54c-5.26,3.03-10.37,6.32-15.9,8.91c-15.39,7.2-30.45,6.24-44.95-2.11
			c-36.82-21.2-73.65-42.41-110.48-63.6c-23.86-13.74-47.72-27.46-71.59-41.2c-16.6-9.56-23.18-24.26-17.85-39.85
			c5.29-15.49,21.38-25.85,40.66-25.86c122.47-0.05,244.92-0.05,367.39,0c20.72,0.01,36.99,11.38,41.6,28.72
			c0.15,0.58,0.57,1.13,0.86,1.68C476.15,137.92,476.15,141.73,476.15,145.55z"/>
	</g>
</g>
</svg>
