<?xml version="1.0" encoding="utf-8"?>
<!-- Generator: Adobe Illustrator 25.3.1, SVG Export Plug-In . SVG Version: 6.00 Build 0)  -->
<svg version="1.1" id="Layer_1" xmlns="http://www.w3.org/2000/svg" xmlns:xlink="http://www.w3.org/1999/xlink" x="0px" y="0px"
	 viewBox="0 0 500 500" style="enable-background:new 0 0 500 500;" xml:space="preserve">
<style type="text/css">
	.st0{fill:#E2E2E2;}
</style>
<g>
	<path class="st0" d="M42,409.23c0-106.16,0-212.34,0-318.5c0.25-0.46,0.64-0.87,0.73-1.36c5.66-28.86,28.01-47.37,57.25-47.37
		c100.48,0,200.94-0.01,301.41,0.01c31.35,0.01,56.55,25.15,56.56,56.45c0.04,101.02,0.03,202.02,0,303.04
		c0,24.27-15.27,45.54-38.27,53.4c-3.67,1.26-7.52,2.07-11.27,3.09c-105.62,0-211.26,0-316.88,0c-0.75-0.26-1.48-0.62-2.26-0.78
		c-23.17-4.59-38.13-18.33-45.3-40.7C43.24,414.11,42.67,411.66,42,409.23z M264.32,226.48c-0.49-0.68-0.75-0.87-0.76-1.08
		c-0.07-3.52-0.06-7.03-0.17-10.55c-0.21-6.14-2.97-8.86-9.08-8.89c-12.05-0.04-24.1-0.03-36.14,0c-6.7,0.01-9.61,2.9-9.62,9.65
		c-0.01,51.44-0.01,102.88,0,154.32c0,7.07,3.05,10.05,10.22,10.07c11.09,0.03,22.2,0.01,33.29,0c8.71,0,11.15-2.4,11.15-11.01
		c0.01-26.26-0.11-52.53,0.06-78.79c0.06-9.87,2.26-19.33,7.82-27.71c6.23-9.36,15.18-12.98,26.18-12.04
		c11.52,1,19.51,7.09,22.35,18.1c2.14,8.26,3.09,17.01,3.22,25.57c0.39,25.31,0.11,50.63,0.11,75.93c0,7,2.81,9.79,9.89,9.8
		c12.05,0.04,24.1,0.04,36.14,0c7.16-0.03,10.15-3.01,10.15-10.14c-0.03-28.15,0.28-56.33-0.32-84.46
		c-0.25-11.97-1.64-24.03-3.9-35.79c-2.73-14.25-9.37-26.76-21.53-35.58c-10.97-7.95-23.53-10.44-36.77-10.62
		C295.79,203.02,277.11,207.74,264.32,226.48z M183.66,293.11c0-25.18,0-50.35,0-75.53c0-9.24-2.48-11.68-11.84-11.68
		c-10.83,0-21.66-0.03-32.49,0.01c-7.24,0.03-10.4,3.18-10.4,10.39c-0.01,51.03-0.01,102.06,0,153.09c0,7.24,3.4,10.58,10.73,10.61
		c10.83,0.03,21.66,0.01,32.49,0c8.62,0,11.51-2.83,11.51-11.37C183.66,343.46,183.66,318.28,183.66,293.11z M191.62,155.39
		c0.04-19.51-15.86-35.47-35.3-35.41c-19.36,0.04-35.43,16.15-35.43,35.48c0,19.26,15.86,35.22,35.07,35.29
		C175.91,190.81,191.6,175.26,191.62,155.39z"/>
</g>
</svg>
