<?xml version="1.0" encoding="utf-8"?>
<!-- Generator: Adobe Illustrator 25.3.1, SVG Export Plug-In . SVG Version: 6.00 Build 0)  -->
<svg version="1.1" id="Layer_1" xmlns="http://www.w3.org/2000/svg" xmlns:xlink="http://www.w3.org/1999/xlink" x="0px" y="0px"
	 viewBox="0 0 500 500" style="enable-background:new 0 0 500 500;" xml:space="preserve">
<style type="text/css">
	.st0{fill:#E2E2E2;}
</style>
<g>
	<path class="st0" d="M262.93,29.26c8.42,1.44,17,2.28,25.22,4.44c65.8,17.26,107.8,58.41,125.11,123.25
		c9.98,37.41,3.43,73.67-10.79,108.98c-15.08,37.48-36.47,71.4-60.56,103.77c-25.92,34.8-54.61,67.25-85.77,97.6
		c-4.62,4.5-7.98,4.61-12.38,0.28c-44.65-43.83-84.97-91.11-117.57-144.43c-17.87-29.21-33.3-59.63-40.24-93.33
		c-12.92-62.77,5.37-115.98,52.99-159.17c23.72-21.52,52.27-33.98,84.02-39.37c4.55-0.77,9.14-1.35,13.72-2.03
		C245.44,29.26,254.18,29.26,262.93,29.26z M249.45,270.63c41.6,0.49,76.78-33.51,77.35-74.76c0.57-41.68-33.89-76.58-75.98-76.95
		c-42.5-0.38-77.45,33.23-78,74.97C172.28,235.68,206.67,270.13,249.45,270.63z"/>
</g>
</svg>
