<?xml version="1.0" encoding="utf-8"?>
<!-- Generator: Adobe Illustrator 25.3.1, SVG Export Plug-In . SVG Version: 6.00 Build 0)  -->
<svg version="1.1" id="Layer_1" xmlns="http://www.w3.org/2000/svg" xmlns:xlink="http://www.w3.org/1999/xlink" x="0px" y="0px"
	 viewBox="0 0 500 500" style="enable-background:new 0 0 500 500;" xml:space="preserve">
<style type="text/css">
	.st0{fill:#E2E2E2;}
</style>
<g>
	<path d="M434.33,213.31c-1.82,7.7-4.46,14.87-9.83,20.4c-6.68,6.88-14.59,9.27-23.48,9.24c-45.37-0.12-90.72-0.05-136.08-0.05
		c-1.29,0-2.61,0-3.9,0c-0.1,0.24-0.21,0.51-0.33,0.75c1.14,0.77,2.24,1.59,3.39,2.31c19.39,12.18,38.81,24.3,58.17,36.51
		c7.24,4.57,9.68,12.72,5.32,19.32c-1.8,2.73-4.86,4.83-7.73,6.11c-8.8,3.88-17.79,7.21-26.72,10.76c-1.33,0.52-2.64,1.15-4.2,1.84
		c10.81,17.06,21.45,33.84,32.09,50.62c3.29,5.2,6.61,10.36,9.87,15.57c4.67,7.52,3.67,14.75-2.9,20.21
		c-9.59,7.94-19.25,15.78-28.9,23.6c-7.52,6.11-13.7,4.93-19.09-3.57c-12.89-20.31-25.77-40.64-38.65-60.96
		c-0.84-1.31-1.7-2.61-2.75-4.22c-0.73,0.87-1.4,1.57-1.94,2.38c-6.42,9.33-12.79,18.7-19.25,28.01c-3.04,4.39-7.05,6.65-12,5.37
		c-5.23-1.35-8.08-5.51-9.15-11.32c-0.56-3.06-1.01-6.14-1.5-9.2c-6.98-43.27-14.01-86.53-20.84-129.84
		c-0.56-3.6-1.73-4.27-4.62-4.27c-23.64,0.12-47.27-0.02-70.93,0.1c-10.88,0.05-19.93-4.08-26.59-14.05
		c-4.04-6.05-6.05-12.93-6.07-20.51c-0.04-35.94-0.1-71.87,0.02-107.81c0.07-20.4,13.77-34.89,32.77-34.9
		c50.41-0.05,100.81-0.02,151.2-0.03c50.53,0,101.04-0.02,151.57,0c8.94,0,17.02,2.66,23.67,9.83c5.14,5.55,7.72,12.61,9.41,20.21
		C434.33,134.89,434.33,174.1,434.33,213.31z M168.86,216.67c-0.28-1.84-0.63-3.15-0.65-4.46c-0.04-2.82-0.42-5.83,0.26-8.45
		c2.12-8.24,9.94-11.34,17.22-6.91c9.71,5.91,19.28,12.11,28.99,18.02c1.7,1.03,3.81,1.7,5.72,1.71
		c60.34,0.09,120.69,0.07,181.05,0.07c7.31,0,9.87-2.94,9.87-11.37c0-34.03,0.02-68.04,0-102.07c0-8.1-2.61-11.11-9.71-11.11
		c-101.14,0-202.27,0-303.41,0.03c-6.89,0-9.47,3.04-9.48,10.93c-0.02,34.15-0.02,68.32,0,102.47c0,8.12,2.64,11.11,9.75,11.11
		c22.2,0.02,44.39,0,66.59,0C166.2,216.67,167.36,216.67,168.86,216.67z M195.05,232.64c6.54,40.54,12.96,80.25,19.53,120.88
		c4.9-7.12,9.26-13.4,13.58-19.74c6.93-10.13,14.99-9.94,21.64,0.54c13.8,21.75,27.57,43.51,41.38,65.26
		c0.68,1.08,1.42,2.1,2.19,3.22c4.3-3.53,8.36-6.86,12.6-10.32c-0.8-1.36-1.45-2.48-2.13-3.59c-13.93-21.97-27.84-43.97-41.8-65.92
		c-2.5-3.94-3.9-8.08-2.61-12.96c1.29-4.86,4.39-7.59,8.47-9.2c7.12-2.8,14.22-5.63,21.99-8.71
		C258.07,272.17,226.95,252.64,195.05,232.64z"/>
	<path class="st0" d="M168.86,216.67c-1.5,0-2.66,0-3.83,0c-22.2,0-44.39,0-66.59,0c-7.1,0-9.75-3.01-9.75-11.11
		c-0.02-34.15-0.02-68.32,0-102.47c0-7.89,2.59-10.93,9.48-10.93c101.14-0.04,202.27-0.04,303.41-0.04c7.1,0,9.71,3.01,9.71,11.11
		c0.02,34.03,0,68.04,0,102.07c0,8.43-2.55,11.37-9.87,11.37c-60.34,0-120.69,0.02-181.05-0.07c-1.92,0-4.02-0.68-5.72-1.71
		c-9.71-5.9-19.28-12.11-28.99-18.02c-7.28-4.43-15.1-1.33-17.22,6.91c-0.68,2.62-0.3,5.62-0.26,8.45
		C168.23,213.52,168.58,214.83,168.86,216.67z M327.43,160.75c0.24,0.04,0.51,0.05,0.75,0.09c1.98,7.38,3.9,14.78,5.93,22.15
		c1.92,6.98,5.58,10.46,10.85,10.53c4.97,0.07,8.66-3.24,10.85-10.04c2.01-6.25,3.92-12.53,5.81-18.81
		c2.76-9.24,5.63-18.46,8.15-27.78c1.63-6.04-0.94-11.07-5.98-12.84c-4.88-1.71-9.27,0.82-11.07,6.61c-1,3.18-1.75,6.47-2.61,9.73
		c-1.54,5.81-3.06,11.63-4.6,17.44c-2.76-8.12-4.81-16.17-7-24.16c-1.87-6.86-5.39-10.11-10.66-10.15
		c-5.41-0.05-8.91,3.24-10.83,10.39c-1.78,6.61-3.41,13.28-5.13,19.91c-0.33,1.29-0.75,2.55-1.43,4.81
		c-2.78-10.24-5.06-19.37-7.79-28.33c-1.84-6-6.14-8.08-11.13-6.19c-4.76,1.8-7.23,6.88-5.63,12.68c2.68,9.85,5.63,19.6,8.57,29.34
		c2.06,6.79,4.06,13.63,6.56,20.21c2.31,6.11,7.09,8.19,12.77,6.67c5.02-1.33,6.63-5.93,7.96-10.6
		C323.84,175.26,325.57,167.98,327.43,160.75z M122.13,158.83c-0.54-1.94-0.84-2.96-1.12-3.99c-2.31-8.42-4.36-16.94-7.02-25.21
		c-2.08-6.49-8.31-8.12-13.3-4.09c-3.25,2.62-4.41,6.79-3.08,11.98c1,3.9,2.19,7.75,3.38,11.6c3.88,12.54,7.68,25.12,11.77,37.56
		c1.54,4.67,5.18,6.79,9.45,6.79c4.36,0,7.98-1.94,9.68-6.93c1.03-3.03,2.03-6.09,2.87-9.2c1.54-5.72,2.97-11.48,4.64-17.99
		c2.43,9.05,4.57,17.23,6.88,25.37c1.57,5.51,5.13,8.42,10.18,8.77c4.41,0.3,8.63-2.68,10.29-7.96
		c5.02-15.97,9.89-32.02,14.57-48.13c1.26-4.32,0.7-8.66-2.94-11.69c-5.39-4.48-12-2.13-14.08,5.21
		c-2.55,9.03-4.85,18.14-7.47,28.05c-2.47-9.36-4.64-17.92-7-26.38c-1.68-6.02-5.56-9.19-10.64-9.08c-4.97,0.1-8.56,3.24-10.17,9.19
		C126.73,141.11,124.56,149.57,122.13,158.83z M233.6,159.3c2.41,9.1,4.41,17.04,6.67,24.9c1.73,6.04,5.67,9.31,10.59,9.33
		c4.58,0.02,8.59-3.01,10.32-8.57c4.88-15.73,9.69-31.49,14.19-47.38c0.75-2.68,0.38-6.33-0.63-8.96c-1.52-3.88-4.93-5.41-8.71-5.04
		c-3.87,0.38-6.35,2.94-7.47,7.1c-2.47,9.12-4.86,18.25-7.49,28.17c-0.54-1.84-0.86-2.83-1.12-3.87c-1.94-7.4-3.64-14.91-5.91-22.18
		c-0.86-2.76-2.61-5.7-4.71-7.33c-5.88-4.62-13.65-1.29-15.9,6.6c-2.43,8.5-4.57,17.11-7.05,26.49c-0.52-1.59-0.79-2.33-0.98-3.06
		c-2.15-8.05-4.23-16.11-6.44-24.14c-1.22-4.46-3.45-7.73-8.05-7.87c-6.98-0.21-11.23,6.33-8.91,14.47
		c4.23,14.84,8.75,29.57,13.19,44.32c0.54,1.78,1.29,3.52,2.1,5.16c2.06,4.22,5.41,6.18,9.54,6.02c4.06-0.16,7.54-1.92,9.13-6.58
		c1.42-4.16,2.68-8.42,3.85-12.67C231.04,169.62,232.16,164.97,233.6,159.3z M376.73,181.78c0.05,6.74,4.6,11.83,10.53,11.77
		c5.86-0.05,10.32-5.27,10.31-12.05c-0.02-6.67-4.62-11.76-10.59-11.7C381.02,169.85,376.68,174.93,376.73,181.78z"/>
	<path class="st0" d="M195.05,232.64c31.9,20.02,63.02,39.52,94.83,59.49c-7.75,3.08-14.87,5.91-21.99,8.71
		c-4.08,1.61-7.16,4.34-8.47,9.2c-1.31,4.88,0.1,9.03,2.61,12.96c13.96,21.96,27.87,43.95,41.8,65.92c0.68,1.08,1.33,2.22,2.13,3.59
		c-4.23,3.46-8.29,6.79-12.6,10.32c-0.75-1.12-1.5-2.15-2.19-3.22c-13.8-21.75-27.57-43.51-41.38-65.26
		c-6.67-10.5-14.73-10.67-21.64-0.54c-4.32,6.32-8.68,12.61-13.58,19.74C208.02,312.9,201.6,273.18,195.05,232.64z"/>
	<path d="M327.43,160.75c-1.87,7.23-3.6,14.5-5.65,21.66c-1.33,4.67-2.94,9.26-7.96,10.6c-5.7,1.52-10.46-0.56-12.77-6.67
		c-2.5-6.58-4.5-13.42-6.56-20.21c-2.96-9.75-5.9-19.51-8.57-29.34c-1.59-5.81,0.87-10.88,5.63-12.68
		c4.99-1.89,9.29,0.19,11.13,6.19c2.73,8.94,5,18.07,7.79,28.33c0.68-2.24,1.1-3.52,1.43-4.81c1.71-6.63,3.34-13.3,5.13-19.91
		c1.92-7.16,5.42-10.43,10.83-10.39c5.27,0.03,8.78,3.29,10.66,10.15c2.19,8,4.23,16.04,7,24.16c1.52-5.81,3.06-11.63,4.6-17.44
		c0.86-3.25,1.61-6.54,2.61-9.73c1.82-5.79,6.19-8.33,11.07-6.61c5.06,1.78,7.63,6.81,5.98,12.84c-2.52,9.33-5.39,18.55-8.15,27.78
		c-1.89,6.3-3.78,12.58-5.81,18.81c-2.2,6.81-5.88,10.11-10.85,10.04c-5.27-0.07-8.92-3.55-10.85-10.53
		c-2.03-7.37-3.97-14.77-5.93-22.15C327.94,160.81,327.69,160.79,327.43,160.75z"/>
	<path d="M122.13,158.83c2.43-9.26,4.6-17.72,6.88-26.14c1.61-5.93,5.21-9.08,10.17-9.19c5.07-0.1,8.96,3.06,10.64,9.08
		c2.36,8.47,4.53,17.02,7,26.38c2.62-9.9,4.92-19.02,7.47-28.05c2.08-7.37,8.7-9.69,14.08-5.21c3.64,3.03,4.2,7.37,2.94,11.69
		c-4.69,16.11-9.55,32.16-14.57,48.13c-1.66,5.28-5.88,8.26-10.29,7.96c-5.06-0.35-8.61-3.25-10.18-8.77
		c-2.31-8.12-4.43-16.32-6.88-25.37c-1.66,6.51-3.08,12.26-4.64,17.99c-0.84,3.11-1.84,6.16-2.87,9.2c-1.7,4.99-5.32,6.93-9.68,6.93
		c-4.27,0-7.93-2.13-9.45-6.79c-4.09-12.46-7.89-25.02-11.77-37.56c-1.19-3.85-2.38-7.68-3.38-11.6c-1.33-5.2-0.17-9.36,3.08-11.98
		c4.99-4.04,11.21-2.4,13.3,4.09c2.66,8.28,4.71,16.8,7.02,25.21C121.29,155.87,121.59,156.89,122.13,158.83z"/>
	<path d="M233.6,159.3c-1.45,5.67-2.55,10.32-3.83,14.92c-1.19,4.27-2.43,8.5-3.85,12.67c-1.57,4.65-5.06,6.44-9.13,6.58
		c-4.11,0.16-7.47-1.8-9.54-6.02c-0.8-1.66-1.57-3.38-2.1-5.16c-4.44-14.75-8.98-29.48-13.19-44.32
		c-2.33-8.15,1.92-14.68,8.91-14.47c4.6,0.14,6.82,3.39,8.05,7.87c2.19,8.03,4.29,16.1,6.44,24.14c0.19,0.75,0.47,1.47,0.98,3.06
		c2.48-9.38,4.62-17.99,7.05-26.49c2.26-7.89,10.03-11.21,15.9-6.6c2.08,1.64,3.85,4.57,4.71,7.33c2.27,7.28,3.97,14.78,5.91,22.18
		c0.26,1.01,0.59,2.03,1.12,3.87c2.64-9.92,5.04-19.05,7.49-28.17c1.12-4.16,3.6-6.72,7.47-7.1c3.76-0.38,7.19,1.14,8.71,5.04
		c1.01,2.62,1.4,6.28,0.63,8.96c-4.48,15.89-9.29,31.65-14.19,47.38c-1.73,5.56-5.74,8.59-10.32,8.57
		c-4.9-0.02-8.84-3.29-10.59-9.33C238.01,176.36,236.01,168.4,233.6,159.3z"/>
	<path d="M376.73,181.78c-0.05-6.88,4.29-11.93,10.27-11.98c5.97-0.05,10.57,5.04,10.59,11.7c0.02,6.79-4.44,12-10.31,12.05
		C381.35,193.63,376.78,188.54,376.73,181.78z"/>
</g>
</svg>
